<?xml version="1.0" encoding="UTF-8" standalone="no"?>


<svg
   width="55.5625mm"
   height="55.562492mm"
   viewBox="0 0 55.5625 55.562492"
   version="1.1"
   id="svg1"
   xml:space="preserve"
   
   
   xmlns="http://www.w3.org/2000/svg"
   ><defs
     id="defs1" /><g
     
     
     id="layer1"
     transform="translate(-77.301378,-120.71875)"><path
       d="M 129.33698,120.71875 H 80.829595 c -1.946011,0 -3.528219,1.58221 -3.528219,3.52822 v 48.50606 c 0,1.94601 1.582208,3.52822 3.528219,3.52822 h 48.506065 c 1.94601,0 3.52822,-1.58221 3.52822,-3.5269 v -48.50738 c 0,-1.94601 -1.58221,-3.52822 -3.5269,-3.52822 z m -21.60852,42.5741 c 0,5.28903 -3.10092,7.69673 -7.62794,7.69673 -4.090457,0 -7.043207,-2.7424 -8.247061,-5.29166 l 4.157927,-2.51751 c 0.80301,1.42345 2.024063,2.51751 3.779573,2.51751 1.678781,0 2.645831,-0.65617 2.645831,-3.2094 v -16.63435 h 5.29167 z m 11.47895,7.69673 c -4.68842,0 -7.35145,-2.36405 -8.83312,-5.29166 l 3.96875,-2.64584 c 1.08215,1.7661 2.25822,3.45811 4.74795,3.45811 2.09153,0 3.18955,-1.04511 3.18955,-2.48973 0,-1.73038 -1.13506,-2.34421 -3.43693,-3.35095 l -1.26207,-0.54107 c -3.64199,-1.55178 -6.06292,-3.49647 -6.06292,-7.60545 0,-3.78619 2.88396,-6.6675 7.39246,-6.6675 3.20939,0 5.51656,1.11654 7.17946,4.04151 l -3.93038,2.52413 c -0.86519,-1.55179 -1.79917,-2.16297 -3.24908,-2.16297 -1.47903,0 -2.41565,0.93794 -2.41565,2.16297 0,1.51473 0.93795,2.12725 3.10356,3.06519 l 1.26206,0.54108 c 4.29022,1.83753 6.71116,3.7121 6.71116,7.92824 0,4.54421 -3.57055,7.03394 -8.3648,7.03394 z"
       id="path1"
       style="fill:#21e6c1;fill-opacity:1;stroke-width:1.32292"
       
       
        /></g></svg>
