<?xml version="1.0" encoding="UTF-8" standalone="no"?>


<svg
   width="113.44009mm"
   height="55.562496mm"
   viewBox="0 0 113.44009 55.562496"
   version="1.1"
   id="svg1"
   xml:space="preserve"
   
   
   xmlns="http://www.w3.org/2000/svg"
   ><defs
     id="defs1" /><g
     
     
     id="layer1"
     transform="translate(-49.29271,-37.246013)"><path
       d="m 49.29271,37.246009 v 55.5625 h 57.8776 l 55.56249,-55.5625 z m 4.630208,4.63021 h 97.695572 l -46.30207,46.30208 H 53.922918 Z m 12.497948,9.26042 c -7.867739,0 -10.182844,4.86535 -10.182844,7.87677 0,3.00242 1.618765,6.47506 6.02289,7.86774 4.630208,1.39268 8.09382,1.61878 8.09382,3.93389 0,2.3151 -7.867738,2.77631 -12.262818,0 l -1.853892,6.01384 c 0,0 2.550235,2.08901 10.182844,2.08901 4.13282,0 7.334174,-1.16658 9.450327,-2.83961 l -1.112338,2.83961 h 8.102864 l 1.383635,-4.169 c 1.627809,0.69635 3.481704,1.15757 5.561678,1.15757 2.079977,0 3.933869,-0.46122 5.561678,-1.15757 l 1.383634,4.169 h 12.733076 v -6.94532 h 3.47265 c 5.78776,0 10.41797,-4.63021 10.41797,-10.41795 0,-5.78778 -4.63021,-10.41798 -10.41797,-10.41798 H 102.5401 v 21.9935 l -8.799199,-21.9935 h -8.102865 l -7.144267,18.23144 c -0.940511,-4.04239 -5.236114,-5.57976 -7.90391,-6.19471 -6.945313,-1.85389 -7.406525,-2.77632 -7.406525,-4.15996 0,-3.47264 9.260417,-1.85389 11.575521,-0.93146 0.696339,-1.85389 2.089021,-5.32654 2.089021,-5.32654 0,0 -2.550234,-1.61877 -10.42701,-1.61877 z m 43.064554,6.94531 h 3.47265 c 1.85389,0 3.47266,1.61878 3.47266,3.47267 0,1.85389 -1.61877,3.47264 -3.47266,3.47264 h -3.47265 z m -19.678388,0.93146 3.472656,9.94773 c -0.922422,0.69633 -2.079974,0.92243 -3.472656,0.92243 -1.392679,0 -2.550231,-0.22604 -3.472656,-0.92243 z"
       id="path1-3"
       style="fill:#21e6c1;fill-opacity:1;stroke-width:2.3151"
       
       
        /></g></svg>
