<?xml version="1.0" encoding="UTF-8" standalone="no"?>


<svg
    width="55.5625mm"
    height="55.562504mm"
    viewBox="0 0 55.5625 55.562504"
    version="1.1"
    id="svg1"
    xml:space="preserve"
    xmlns="http://www.w3.org/2000/svg"><defs
     id="defs1" /><g
     
     
     id="layer1"
     transform="translate(-69.07274,-188.82363)"><path
       d="M 123.31232,188.82364 H 70.39565 c -0.73157,0 -1.322915,0.5927 -1.322915,1.32295 v 52.91665 c 0,0.73025 0.591345,1.3229 1.322915,1.3229 h 52.91667 c 0.73158,0 1.32292,-0.59265 1.32292,-1.3229 v -52.91665 c 0,-0.73025 -0.59134,-1.32295 -1.32292,-1.32295 z m -21.16667,29.6929 h -6.61458 v 20.57795 H 90.2394 v -20.57795 h -6.61458 v -4.55745 h 18.52083 z m 1.48299,19.4032 v -5.5007 c 0,0 3.00435,2.26485 6.6093,2.26485 3.60494,0 3.46604,-2.35745 3.46604,-2.68025 0,-3.42105 -10.21424,-3.42105 -10.21424,-11.00005 0,-10.30685 14.88281,-6.2402 14.88281,-6.2402 l -0.1852,4.9001 c 0,0 -2.49634,-1.66425 -5.31548,-1.66425 -2.81913,0 -3.83646,1.34015 -3.83646,2.77285 0,3.69755 10.30685,3.32845 10.30685,10.76985 0.001,11.46175 -15.71361,6.3778 -15.71361,6.3778 z"
       id="path2"
       style="fill:#21e6c1;fill-opacity:1;stroke-width:1.32292"
       
       
        /></g></svg>