<?xml version="1.0" encoding="UTF-8" standalone="no"?>


<svg
   width="55.5625mm"
   height="58.520493mm"
   viewBox="0 0 55.5625 58.520493"
   version="1.1"
   id="svg1"
   xml:space="preserve"
   
   
   xmlns="http://www.w3.org/2000/svg"
   ><defs
     id="defs1" /><g
     
     
     id="layer1"
     transform="translate(-143.04093,-121.15099)"><g
       clip-path="url(#a)"
       id="g11"
       transform="matrix(0.11704098,0,0,0.11704098,141.56234,121.15099)"
       style="fill:#21e6c1;fill-opacity:1"><path
         d="m 244.45,0 c 0,0 -0.06,20.81 54.34,53.86 105.62,64.14 105.26,122.99 105.26,135.34 0,52.44 -54.58,86.34 -79.9,58.9 0,0 24.85,-18.44 24.85,-46.8 0,0 -18.22,12 -27.75,14.08 0,0 12.42,-21.95 6.63,-60.46 0,0 -9.94,19.46 -41.83,35.2 0,0 12.42,-27.75 0.83,-54.25 0,0 2.48,33.13 -72.9,68.33 -75.38,35.2 -52.18,70.41 -52.18,70.41 0,0 15,-16 40.54,-4.75 34.51,15.16 20.56,76 -34.94,76 -54,0 -89.49,-58.76 -89.49,-104.65 0,-19 2.06,-53.87 36.33,-92.26 27.26,-30.53 60.88,-46.64 68.09,-80.4 C 145,103.16 77.61,125.76 37.56,185 1.56,238.21 13.26,308.6 19.73,330.25 49.11,428.44 140.14,500 247.88,500 379.39,500 487.36,394.77 487.36,263.26 487.36,64.18 298.1,43.06 244.45,0 Z"
         fill="url(#b)"
         id="path2-0"
         style="fill:#21e6c1;fill-opacity:1" /><g
         fill="#07c1f2"
         id="g10"
         style="fill:#21e6c1;fill-opacity:1"><path
           d="m 230.78,248.69 c 41.93,-21.61 55.37,-58.64 55.37,-58.64 0,0 12.42,-27.76 0.82,-54.29 0,0 2.48,33.16 -73,68.39 -75.48,35.23 -52.22,70.46 -52.22,70.46 3.95,-3.52 7.71,-5.9 15.16,-7.9 12.46,-3.34 31.99,-6.71 53.87,-18.02 z"
           opacity="0.6"
           id="path3"
           style="fill:#21e6c1;fill-opacity:1" /><path
           d="m 232.94,264 c 32.4,0 69.89,-15.06 88.44,-48.7 2.9,-5.25 5.48,-13.78 6.77,-21.81 2,-12.8 2.25,-22.32 -0.11,-39.61 0,0 -6.14,17.21 -41.89,36.13 -13,6.87 -29.61,13.74 -51.61,20.42 C 149.3,236.3 161.8,274.57 161.8,274.57 175.23,265.72 175.31,264 232.94,264 Z"
           opacity="0.4"
           id="path4"
           style="fill:#21e6c1;fill-opacity:1" /><path
           d="m 232.94,264 c 29.79,0 70.29,1.68 91.33,-16 12.9,-10.81 24.68,-25.1 24.9,-46.88 0,0 -17.65,11.65 -27.79,14.15 -14,3.46 -39.29,8.78 -62.39,7.47 -78.41,-4.45 -97.19,51.79 -97.19,51.79 10.81,-9.92 23.97,-10.53 71.14,-10.53 z"
           opacity="0.2"
           id="path5"
           style="fill:#21e6c1;fill-opacity:1" /><path
           d="m 230.78,248.69 c 41.93,-21.61 55.37,-58.64 55.37,-58.64 -13,6.87 -29.61,13.74 -51.61,20.42 -85.24,25.87 -72.74,64.14 -72.74,64.14 3.95,-3.52 7.71,-5.9 15.16,-7.9 12.41,-3.34 31.94,-6.71 53.82,-18.02 z"
           opacity="0.4"
           id="path6"
           style="fill:#21e6c1;fill-opacity:1" /><path
           d="m 177,266.71 c 12.41,-3.34 31.94,-6.74 53.82,-18 A 122.3,122.3 0 0 0 264.6,223 c -1.88,0 -3.75,-0.07 -5.61,-0.17 -78.41,-4.45 -97.19,51.79 -97.19,51.79 a 30.39,30.39 0 0 1 12,-7 c 1.01,-0.29 2.03,-0.62 3.2,-0.91 z"
           id="path7"
           style="fill:#21e6c1;fill-opacity:1" /><path
           d="m 487.36,263.26 c 0,-39.7 -7.54,-72.31 -20,-99.45 1.19,3.59 25.3,79 -35.06,139.33 -34.46,34.46 -93.09,46.39 -140.23,8.71 0,0 6,94.58 -106.06,108.53 -73.17,9.11 -130.75,-37.51 -155.73,-96.89 -17.38,-41.3 -19,-88.77 0.9,-128 C 3.07,247.12 13.68,310 19.73,330.25 49.11,428.44 140.14,500 247.88,500 379.39,500 487.36,394.77 487.36,263.26 Z"
           opacity="0.4"
           id="path8"
           style="fill:#21e6c1;fill-opacity:1" /><path
           d="m 463.18,367.1 c -12.42,3.36 -109.76,26.52 -171.13,-55.25 0,0 28.58,110.85 -92.9,183.15 a 238.53,238.53 0 0 0 48.73,5 c 94.17,0 176.27,-54 215.3,-132.9 z"
           opacity="0.6"
           id="path9"
           style="fill:#21e6c1;fill-opacity:1" /><path
           d="M 410.33,437.18 C 334.22,398 292.05,311.85 292.05,311.85 c 33.92,82.73 19.22,147.29 4,183.34 a 240.24,240.24 0 0 0 114.28,-58.01 z"
           opacity="0.7"
           id="path10"
           style="fill:#21e6c1;fill-opacity:1" /></g></g></g></svg>
